<?xml version="1.0"?>
<svg xmlns="http://www.w3.org/2000/svg" xmlns:xlink="http://www.w3.org/1999/xlink" xmlns:svgjs="http://svgjs.com/svgjs" version="1.1" width="512" height="512" x="0" y="0" viewBox="0 0 488 488" style="enable-background:new 0 0 512 512" xml:space="preserve" class=""><g><path xmlns="http://www.w3.org/2000/svg" d="m7.136719 401 16.542969 1.601562c1.910156 6.660157 4.609374 13.074219 8.035156 19.097657l-10.515625 12.675781c-2.640625 3.179688-2.421875 7.847656.5 10.769531l21.117187 21.074219c2.917969 2.914062 7.578125 3.128906 10.753906.5l12.71875-10.550781c6.035157 3.414062 12.445313 6.121093 19.101563 8.0625l1.601563 16.539062c.394531 4.101563 3.839843 7.230469 7.960937 7.230469h29.917969c4.117187 0 7.566406-3.128906 7.960937-7.230469l1.601563-16.53125c6.675781-1.90625 13.101562-4.605469 19.136718-8.035156l12.679688 10.511719c3.175781 2.632812 7.835938 2.414062 10.757812-.5l21.117188-21.074219c2.925781-2.921875 3.144531-7.589844.507812-10.769531l-10.53125-12.699219c3.410157-6.03125 6.113282-12.429687 8.0625-19.074219l16.488282-1.601562c4.121094-.386719 7.289062-3.820313 7.347656-7.960938v-29.875c-.058594-4.144531-3.230469-7.578125-7.355469-7.960937l-16.652343-1.601563c-1.929688-6.664062-4.644532-13.078125-8.089844-19.101562l10.488281-12.667969c2.625-3.167969 2.417969-7.808594-.480469-10.730469l-20.863281-21.078125c-2.917969-2.949219-7.605469-3.179687-10.796875-.53125l-12.714844 10.546875c-6.035156-3.414062-12.445312-6.121094-19.101562-8.0625l-1.601563-16.640625c-.386719-4.121093-3.820312-7.285156-7.960937-7.332031h-29.917969c-4.140625.042969-7.574219 3.207031-7.964844 7.328125l-1.597656 16.582031c-6.679687 1.914063-13.101563 4.621094-19.140625 8.058594l-12.675781-10.5c-3.179688-2.632812-7.835938-2.414062-10.757813.5l-21.117187 21.082031c-2.925781 2.921875-3.144531 7.589844-.503907 10.773438l10.527344 12.699219c-3.40625 6.027343-6.109375 12.425781-8.058594 19.066406l-16.527343 1.609375c-4.078125.40625-7.1757815 3.859375-7.136719 7.960937v29.875c-.0429688 4.105469 3.054688 7.558594 7.136719 7.964844zm8.863281-30.574219 14.871094-1.449219c3.4375-.335937 6.261718-2.851562 6.992187-6.226562 1.953125-8.75 5.464844-17.078125 10.375-24.582031 1.910157-2.941407 1.683594-6.777344-.558593-9.472657l-9.511719-11.46875 10.800781-10.78125 11.476562 9.519532c2.714844 2.25 6.578126 2.457031 9.519532.515625 7.457031-4.941407 15.773437-8.441407 24.523437-10.3125 3.417969-.777344 5.949219-3.660157 6.28125-7.148438l1.445313-15.019531h15.394531l1.445313 15.019531c.332031 3.484375 2.878906 6.351563 6.296874 7.097657 8.761719 1.949218 17.097657 5.472656 24.601563 10.394531 2.929687 1.886719 6.746094 1.660156 9.429687-.5625l11.445313-9.480469 10.609375 10.71875-9.539062 11.5c-2.253907 2.71875-2.457032 6.597656-.5 9.539062 4.949218 7.441407 8.460937 15.75 10.347656 24.484376.796875 3.414062 3.6875 5.933593 7.175781 6.261718l15.078125 1.453125v15.355469l-14.839844 1.441406c-3.457031.332032-6.3125 2.839844-7.09375 6.222656-1.96875 8.757813-5.503906 17.082032-10.429687 24.585938-1.914063 2.929688-1.699219 6.769531.53125 9.472656l9.5 11.464844-10.804688 10.78125-11.484375-9.519531c-2.710937-2.25-6.578125-2.457031-9.519531-.511719-7.457031 4.941406-15.777344 8.4375-24.523437 10.3125-3.40625.730469-5.949219 3.582031-6.285157 7.046875l-1.441406 14.921875h-15.394531l-1.445313-14.921875c-.339843-3.472656-2.886719-6.324219-6.300781-7.050781-8.761719-1.941406-17.09375-5.453125-24.601562-10.367188-2.929688-1.882812-6.746094-1.652344-9.429688.570313l-11.472656 9.519531-10.800782-10.78125 9.507813-11.46875c2.253906-2.71875 2.457031-6.59375.5-9.535156-4.949219-7.445313-8.457031-15.75-10.347656-24.484375-.699219-3.382813-3.515625-5.921875-6.953125-6.261719l-14.871094-1.445312zm0 0" fill="#2cd97b" data-original="#000000" style=""/><path xmlns="http://www.w3.org/2000/svg" d="m109.800781 444c36.382813-.050781 65.84375-29.574219 65.808594-65.960938-.03125-36.382812-29.546875-65.855468-65.929687-65.839843-36.382813.015625-65.871094 29.515625-65.871094 65.902343.070312 36.402344 29.589844 65.878907 65.992187 65.898438zm0-115.808594c27.546875.050782 49.84375 22.414063 49.808594 49.960938-.03125 27.546875-22.382813 49.855468-49.929687 49.839844-27.546876-.019532-49.871094-22.355469-49.871094-49.902344.058594-27.570313 22.421875-49.890625 49.992187-49.894532zm0 0" fill="#2cd97b" data-original="#000000" style=""/><path xmlns="http://www.w3.org/2000/svg" d="m301.035156 206.570312c10.253906 10.167969 16.058594 23.988282 16.136719 38.429688h-.859375c-4.417969 0-8 3.582031-8 8s3.582031 8 8 8h95.703125c4.421875 0 8-3.582031 8-8s-3.578125-8-8-8h-1.863281c-.175782-14 5.4375-27.132812 16.480468-38.109375.027344-.027344.050782-.054687.078126-.082031 15.398437-15.730469 23.882812-36 23.882812-57.058594-.039062-21.734375-8.863281-42.535156-24.460938-57.671875-34.082031-33.265625-88.375-33.585937-122.847656-.734375-16.328125 15.511719-25.515625 35.761719-25.875 57-.351562 21.8125 8.175782 42.828125 23.625 58.226562zm61.917969-123.644531c19.378906-.433593 38.109375 6.972657 51.949219 20.546875 12.535156 12.136719 19.640625 28.824219 19.691406 46.277344 0 16.835938-6.847656 33.117188-19.28125 45.832031-13.964844 13.902344-21.300781 31.417969-21.15625 49.417969h-60.976562c-.132813-18.691406-7.632813-36.578125-20.867188-49.777344-12.363281-12.324218-19.1875-29.144531-18.90625-46.601562.59375-35.042969 32.445312-65.128906 69.546875-65.695313zm0 0" fill="#2cd97b" data-original="#000000" style=""/><path xmlns="http://www.w3.org/2000/svg" d="m362 46.9375c4.417969 0 8-3.582031 8-8v-30.9375c0-4.417969-3.582031-8-8-8s-8 3.582031-8 8v30.9375c0 4.417969 3.582031 8 8 8zm0 0" fill="#2cd97b" data-original="#000000" style=""/><path xmlns="http://www.w3.org/2000/svg" d="m442.261719 80.085938c1.96875.003906 3.871093-.726563 5.339843-2.042969l23.925782-21.46875c3.289062-2.949219 3.5625-8.007813.613281-11.296875-2.953125-3.289063-8.011719-3.5625-11.300781-.613282l-23.925782 21.46875c-2.464843 2.214844-3.3125 5.71875-2.128906 8.816407 1.1875 3.09375 4.160156 5.140625 7.476563 5.136719zm0 0" fill="#2cd97b" data-original="#000000" style=""/><path xmlns="http://www.w3.org/2000/svg" d="m279.519531 75.003906c2.046875 2.042969 5.039063 2.824219 7.820313 2.039063 2.785156-.785157 4.929687-3.007813 5.609375-5.820313.679687-2.808594-.210938-5.769531-2.328125-7.738281l-22.929688-22.097656c-3.191406-2.988281-8.191406-2.859375-11.226562.289062-3.03125 3.148438-2.976563 8.152344.125 11.230469zm0 0" fill="#2cd97b" data-original="#000000" style=""/><path xmlns="http://www.w3.org/2000/svg" d="m250.183594 417h72c26.460937-.046875 47.871094-21.539062 47.816406-48v-76h23.40625c4.417969 0 8-3.582031 8-8s-3.582031-8-8-8h-58.484375c-4.417969 0-8 3.582031-8 8s3.582031 8 8 8h19.078125v76c.03125 8.464844-3.304688 16.59375-9.273438 22.597656-5.964843 6.003906-14.078124 9.386719-22.542968 9.402344h-72c-4.417969 0-8 3.582031-8 8s3.582031 8 8 8zm0 0" fill="#2cd97b" data-original="#000000" style=""/></g></svg>
