<?xml version="1.0"?>
<svg xmlns="http://www.w3.org/2000/svg" xmlns:xlink="http://www.w3.org/1999/xlink" xmlns:svgjs="http://svgjs.com/svgjs" version="1.1" width="512" height="512" x="0" y="0" viewBox="0 0 512 512" style="enable-background:new 0 0 512 512" xml:space="preserve"><g><g xmlns="http://www.w3.org/2000/svg"><path d="m50 100.177h280c5.522 0 10-4.477 10-10s-4.478-10-10-10h-280c-13.165.449-13.327 19.483 0 20z" fill="#ffffff" data-original="#000000" style=""/><path d="m50.007 60.177c5.523 0 10-4.477 10-10-.49-13.251-19.519-13.249-20.004 0 0 5.523 4.481 10 10.004 10z" fill="#ffffff" data-original="#000000" style=""/><path d="m95.007 60.177c5.523 0 10-4.477 10-10-.49-13.251-19.519-13.249-20.004 0 0 5.523 4.481 10 10.004 10z" fill="#ffffff" data-original="#000000" style=""/><path d="m140.007 60.177c5.523 0 10-4.477 10-10-.49-13.251-19.519-13.249-20.004 0 0 5.523 4.481 10 10.004 10z" fill="#ffffff" data-original="#000000" style=""/><path d="m330 240.177h-280c-5.523 0-10 4.477-10 10s4.477 10 10 10h280c13.164-.45 13.326-19.483 0-20z" fill="#ffffff" data-original="#000000" style=""/><path d="m50.007 220.176c5.523 0 10-4.477 10-10-.49-13.251-19.519-13.249-20.004 0 0 5.523 4.481 10 10.004 10z" fill="#ffffff" data-original="#000000" style=""/><path d="m95.007 220.176c5.523 0 10-4.477 10-10-.49-13.251-19.519-13.249-20.004 0 0 5.523 4.481 10 10.004 10z" fill="#ffffff" data-original="#000000" style=""/><path d="m140.007 220.176c5.523 0 10-4.477 10-10-.49-13.251-19.519-13.249-20.004 0 0 5.523 4.481 10 10.004 10z" fill="#ffffff" data-original="#000000" style=""/><path d="m50.007 380.176c5.523 0 10-4.477 10-10-.49-13.251-19.519-13.249-20.004 0 0 5.523 4.481 10 10.004 10z" fill="#ffffff" data-original="#000000" style=""/><path d="m95.007 380.176c5.523 0 10-4.477 10-10-.49-13.251-19.519-13.249-20.004 0 0 5.523 4.481 10 10.004 10z" fill="#ffffff" data-original="#000000" style=""/><path d="m140.007 380.176c5.523 0 10-4.477 10-10-.49-13.251-19.519-13.249-20.004 0 0 5.523 4.481 10 10.004 10z" fill="#ffffff" data-original="#000000" style=""/><path d="m397.002 282.179c-6.951 0-13.76.62-20.374 1.807 2.154-4.136 3.372-8.833 3.372-13.81v-80c0-13.037-8.36-24.158-20-28.286v-23.428c11.64-4.127 20-15.249 20-28.286v-80c0-16.542-13.458-30-30-30h-320c-16.542 0-30 13.458-30 30v80c0 13.037 8.359 24.159 20 28.286v23.428c-11.64 4.127-20 15.248-20 28.286v80c0 13.037 8.359 24.159 20 28.286v23.428c-11.64 4.127-20 15.249-20 28.286v80c0 16.542 13.458 30 30 30h270.833c61.76 94.314 210.652 51.276 211.168-63 0-63.409-51.588-114.997-114.999-114.997zm-85.343 37.998h-271.659v-20h295.29c-8.751 5.587-16.7 12.325-23.631 20zm-291.659-50v-80c0-5.514 4.486-10 10-10h320c5.514 0 10 4.486 10 10v80c0 5.514-4.486 10-10 10h-320c-5.514 0-10-4.486-10-10zm320-130v20h-300v-20zm-320-110c0-5.514 4.486-10 10-10h320c5.514 0 10 4.486 10 10v80c0 5.514-4.486 10-10 10h-320c-5.514 0-10-4.486-10-10zm10 410c-5.514 0-10-4.486-10-10v-80c0-5.514 4.486-10 10-10h267.149c-10.105 17.55-15.702 38.463-15.108 60h-232.041c-5.523 0-10 4.477-10 10s4.477 10 10 10h234.313c1.408 6.91 3.438 13.597 6.028 20zm367.002 52.002c-52.383 0-95-42.617-95-95 4.776-125.856 185.242-125.823 189.999.001 0 52.382-42.616 94.999-94.999 94.999z" fill="#ffffff" data-original="#000000" style=""/><path d="m429.93 363.441-46.262 46.263-19.596-19.596c-9.662-9.032-23.188 4.45-14.142 14.143 0 0 26.667 26.667 26.667 26.667 3.725 3.871 10.418 3.874 14.143 0 0 0 53.333-53.333 53.333-53.333 3.905-3.905 3.905-10.237 0-14.143-3.907-3.907-10.237-3.907-14.143-.001z" fill="#ffffff" data-original="#000000" style=""/></g></g></svg>
