<?xml version="1.0"?>
<svg xmlns="http://www.w3.org/2000/svg" xmlns:xlink="http://www.w3.org/1999/xlink" xmlns:svgjs="http://svgjs.com/svgjs" version="1.1" width="512" height="512" x="0" y="0" viewBox="0 0 512.00044 512" style="enable-background:new 0 0 512 512" xml:space="preserve"><g><path xmlns="http://www.w3.org/2000/svg" d="m277.210938 220.640625c-3.898438 3.910156-3.898438 10.238281 0 14.148437 3.910156 3.902344 10.238281 3.902344 14.148437 0 3.902344-3.910156 3.902344-10.238281 0-14.148437-3.910156-3.902344-10.238281-3.902344-14.148437 0zm0 0" fill="#ffffff" data-original="#000000" style=""/><path xmlns="http://www.w3.org/2000/svg" d="m481.488281 143c28.945313-66.941406 30.460938-130.070312 30.511719-132.8125.050781-2.71875-1.007812-5.335938-2.929688-7.257812-1.875-1.878907-4.417968-2.929688-7.070312-2.929688-.0625 0-.125 0-.1875.00390625-2.753906.05078125-66.5 1.57812475-133.8125 30.94531275-31.488281 13.738281-60.695312 32.324219-84.789062 56.421875-13.414063 13.410156-26.648438 28.070312-39.410157 43.613281-71.421875-12.296875-97.824219 27.695313-125.730469 69.976563-11.988281 18.160156-24.382812 36.9375-41.269531 53.828124-3.007812 3.007813-3.785156 7.585938-1.9375 11.414063 1.835938 3.808594 5.882813 6.074219 10.136719 5.59375l68.796875-7.828125c-2.082031 3.484375-2.921875 4.894531-8.75 14.652344-1.453125 2.425781-1.804687 5.355468-.976563 8.0625.808594 2.628906 1.714844 5.246094 2.703126 7.832031l-32.285157 32.285156c-3.234375 3.234375-3.859375 8.253907-1.519531 12.1875 7.351562 12.34375 16.1875 23.707031 26.261719 33.785157 10.074219 10.074218 21.4375 18.910156 33.785156 26.257812 3.945313 2.351562 8.964844 1.703125 12.1875-1.519531l32.28125-32.285157c2.585937.988282 5.203125 1.898438 7.835937 2.703126 2.695313.828124 5.628907.476562 8.058594-.976563 9.730469-5.808594 11.265625-6.726563 14.652344-8.75l-7.828125 68.796875c-.476563 4.222656 1.761719 8.292969 5.59375 10.136719 3.863281 1.863281 8.429687 1.046875 11.414063-1.933594 14.894531-14.890625 32.804687-26.511719 50.128906-37.746094 42.40625-27.507812 86.210937-55.929687 73.671875-129.253906 15.546875-12.765625 30.207031-26 43.621093-39.410156 24.355469-24.359375 43.074219-53.929688 56.855469-85.792969zm-17.785156-9.292969c-19.988281-6.230469-38.253906-17.25-53.207031-32.195312-14.949219-14.957031-25.972656-33.222657-32.199219-53.214844 47.046875-20.054687 92.804687-25.941406 113.046875-27.632813-1.675781 20.222657-7.535156 65.898438-27.640625 113.042969zm-328.941406 78.269531c25.4375-38.535156 44.476562-67.371093 94.59375-62.765624-24.488281 32.007812-45.132813 64.523437-62.535157 93.148437l-58.175781 6.617187c9.953125-12.507812 18.371094-25.261718 26.117188-37zm41.941406 165.75c-8.414063-5.601562-16.238281-12.003906-23.332031-19.097656s-13.496094-14.917968-19.09375-23.332031l21.746094-21.746094c5.167968 8.65625 11.363281 16.65625 18.566406 23.859375s15.203125 13.398438 23.859375 18.566406zm119.75 2.949219c-11.15625 7.238281-22.550781 14.628907-33.46875 23.042969l6.660156-58.535156c28.613281-17.398438 61.117188-38.035156 93.113281-62.511719 4.59375 52.011719-27.105468 72.582031-66.304687 98.003906zm-69.410156-33.234375c-14.441407-5.105468-27.433594-13.296875-38.3125-24.171875-10.683594-10.683593-18.972657-23.609375-24.171875-38.3125 38.691406-64.8125 76.671875-127.328125 132.792968-183.445312 17.375-17.375 38.421876-32.382813 62.679688-44.710938 7.320312 22.074219 19.714844 42.238281 36.320312 58.851563 16.609376 16.601562 36.773438 29 58.847657 36.316406-12.328125 24.257812-27.335938 45.304688-44.710938 62.679688-56.015625 56.015624-118.75 94.175781-183.445312 132.792968zm0 0" fill="#ffffff" data-original="#000000" style=""/><path xmlns="http://www.w3.org/2000/svg" d="m248.929688 248.929688-42.429688 42.429687c-3.90625 3.90625-3.90625 10.238281 0 14.144531 3.90625 3.902344 10.238281 3.902344 14.144531 0l42.429688-42.433594c3.902343-3.902343 3.902343-10.234374 0-14.140624-3.910157-3.90625-10.238281-3.90625-14.144531 0zm0 0" fill="#ffffff" data-original="#000000" style=""/><path xmlns="http://www.w3.org/2000/svg" d="m318.570312 136.859375c-15.597656 15.597656-15.597656 40.976563 0 56.570313 15.597657 15.597656 40.972657 15.597656 56.574219 0 15.582031-15.597657 15.582031-40.972657-.003906-56.574219-15.597656-15.582031-40.972656-15.582031-56.570313.003906zm42.429688 42.429687c-7.796875 7.796876-20.492188 7.800782-28.289062 0-7.796876-7.800781-7.796876-20.488281-.003907-28.285156 7.792969-7.785156 20.484375-7.800781 28.289063-.003906 7.792968 7.796875 7.796875 20.488281.003906 28.289062zm0 0" fill="#ffffff" data-original="#000000" style=""/><path xmlns="http://www.w3.org/2000/svg" d="m65.078125 390.351562c-6.320313 6.320313-2.820313 2.988282-63.714844 106.609376-2.289062 3.925781-1.648437 8.898437 1.566407 12.109374 3.210937 3.214844 8.1875 3.855469 12.109374 1.566407 103.828126-61.015625 100.285157-57.394531 106.613282-63.71875 15.582031-15.597657 15.582031-40.972657-.003906-56.574219-15.59375-15.578125-40.972657-15.582031-56.570313.007812zm42.429687 14.136719c7.792969 7.800781 7.792969 20.492188.003907 28.289063-3.1875 3.1875.746093.105468-69.722657 41.433594 40.941407-69.800782 38.226563-66.511719 41.429688-69.714844 7.792969-7.789063 20.484375-7.804688 28.289062-.007813zm0 0" fill="#ffffff" data-original="#000000" style=""/></g></svg>
