<?xml version="1.0"?>
<svg xmlns="http://www.w3.org/2000/svg" xmlns:xlink="http://www.w3.org/1999/xlink" xmlns:svgjs="http://svgjs.com/svgjs" version="1.1" width="512" height="512" x="0" y="0" viewBox="0 0 512 512" style="enable-background:new 0 0 512 512" xml:space="preserve" class=""><g><g xmlns="http://www.w3.org/2000/svg"><path d="m296.606 252.894c-5.857-5.858-15.355-5.858-21.213 0l-34.393 34.393-11.894-11.893c-5.857-5.858-15.355-5.858-21.213 0s-5.858 15.355 0 21.213l22.5 22.5c5.857 5.858 15.355 5.859 21.213 0l45-45c5.858-5.858 5.858-15.356 0-21.213z" fill="#ffffff" data-original="#000000" style=""/><path d="m330.382 89.048c2.354-7.943-2.177-16.29-10.12-18.644-42.041-12.459-86.483-12.459-128.524 0-7.943 2.354-12.474 10.701-10.12 18.644s10.703 12.476 18.644 10.12c36.464-10.808 75.012-10.808 111.476 0 7.942 2.353 16.29-2.177 18.644-10.12z" fill="#ffffff" data-original="#000000" style=""/><path d="m223.022 124.376c-8.119 1.645-13.368 9.56-11.723 17.68 1.645 8.119 9.561 13.368 17.679 11.723 17.931-3.632 36.113-3.632 54.044 0 8.136 1.649 16.038-3.622 17.679-11.723 1.645-8.12-3.604-16.035-11.723-17.68-21.883-4.431-44.073-4.431-65.956 0z" fill="#ffffff" data-original="#000000" style=""/><path d="m361 286c0-57.897-47.103-105-105-105s-105 47.103-105 105 47.103 105 105 105 105-47.103 105-105zm-180 0c0-41.355 33.645-75 75-75s75 33.645 75 75-33.645 75-75 75-75-33.645-75-75z" fill="#ffffff" data-original="#000000" style=""/><path d="m467 211h-16v-15c0-108.075-87.477-196-195-196s-195 87.925-195 196v15h-16c-24.813 0-45 20.187-45 45v90c0 24.813 20.187 45 45 45h61c8.284 0 15-6.716 15-15v-150c0-8.284-6.716-15-15-15h-15v-15c0-91.533 74.019-166 165-166s165 74.467 165 166v15h-15c-8.284 0-15 6.716-15 15v150c0 8.284 6.716 15 15 15h15v16c0 24.813-20.187 45-45 45h-77.58c-6.192-17.458-22.865-30-42.42-30-24.813 0-45 20.187-45 45s20.187 45 45 45c19.555 0 36.228-12.542 42.42-30h77.58c41.355 0 75-33.645 75-75v-16h16c24.813 0 45-20.187 45-45v-90c0-24.813-20.187-45-45-45zm-376 150h-46c-8.271 0-15-6.729-15-15v-90c0-8.271 6.729-15 15-15h46zm165 121c-8.271 0-15-6.729-15-15s6.729-15 15-15 15 6.729 15 15-6.729 15-15 15zm226-136c0 8.271-6.729 15-15 15h-46v-120h46c8.271 0 15 6.729 15 15z" fill="#ffffff" data-original="#000000" style=""/></g></g></svg>
